<?xml version="1.0" ?><svg viewBox="0 0 24 24" xmlns="http://www.w3.org/2000/svg"><defs><style>.cls-1{fill:#231f20;}</style></defs><g data-name="shut down" id="shut_down-3"><path class="cls-1" d="M15.37,2.63a1,1,0,0,0-.69,1.87A8,8,0,0,1,19.84,12,7.91,7.91,0,0,1,12,20a7.91,7.91,0,0,1-7.84-8A8,8,0,0,1,9.32,4.5a1,1,0,0,0-.69-1.87A10,10,0,0,0,12,22,10,10,0,0,0,15.37,2.63Z"/><path class="cls-1" d="M7.67,12.46A4.42,4.42,0,1,0,13,8.13V3a1,1,0,0,0-2,0V8.19A4.42,4.42,0,0,0,7.67,12.46Zm6.84,0A2.42,2.42,0,1,1,12.09,10,2.43,2.43,0,0,1,14.51,12.46Z"/></g></svg>